<svg width="22" height="36" viewBox="0 0 22 36" fill="none" xmlns="http://www.w3.org/2000/svg">
<path d="M20.4396 16.1067L5.34629 1.04002C5.09839 0.790074 4.80346 0.59169 4.4785 0.456306C4.15354 0.320923 3.80499 0.251221 3.45296 0.251221C3.10093 0.251221 2.75238 0.320923 2.42742 0.456306C2.10246 0.59169 1.80753 0.790074 1.55963 1.04002C1.06296 1.53965 0.78418 2.21552 0.78418 2.92002C0.78418 3.62451 1.06296 4.30038 1.55963 4.80002L14.7596 18.1333L1.55963 31.3333C1.06296 31.833 0.78418 32.5089 0.78418 33.2133C0.78418 33.9178 1.06296 34.5937 1.55963 35.0933C1.8066 35.3453 2.10112 35.5458 2.42612 35.6831C2.75112 35.8204 3.10014 35.8919 3.45296 35.8933C3.80578 35.8919 4.1548 35.8204 4.4798 35.6831C4.8048 35.5458 5.09932 35.3453 5.34629 35.0933L20.4396 20.0267C20.7103 19.777 20.9263 19.4739 21.0741 19.1366C21.2218 18.7992 21.2981 18.435 21.2981 18.0667C21.2981 17.6984 21.2218 17.3341 21.0741 16.9968C20.9263 16.6595 20.7103 16.3564 20.4396 16.1067V16.1067Z" fill="black"/>
</svg>
